<?xml version="1.0" standalone="no"?>
<!DOCTYPE svg PUBLIC "-//W3C//DTD SVG 20010904//EN"
 "http://www.w3.org/TR/2001/REC-SVG-20010904/DTD/svg10.dtd">
<svg version="1.0" xmlns="http://www.w3.org/2000/svg"
 width="700.000000pt" height="700.000000pt" viewBox="0 0 700.000000 700.000000"
 preserveAspectRatio="xMidYMid meet">
<metadata>
Created by potrace 1.11, written by Peter Selinger 2001-2013
</metadata>
<g transform="translate(0.000000,700.000000) scale(0.100000,-0.100000)"
fill="#000000" stroke="none">
<path d="M575 6763 c-31 -8 -45 -23 -74 -82 -80 -160 -89 -517 -26 -956 1 -11
6 -42 10 -70 4 -27 11 -69 16 -93 5 -23 12 -59 15 -80 3 -20 13 -66 21 -102 8
-36 16 -72 18 -80 76 -350 243 -783 399 -1030 92 -146 138 -261 152 -380 3
-25 7 -56 10 -70 5 -28 5 -218 0 -265 -7 -62 -18 -120 -24 -132 -4 -6 -118
-123 -253 -260 -264 -267 -486 -480 -730 -701 -89 -81 -125 -192 -99 -301 20
-85 164 -272 361 -471 280 -283 568 -490 939 -675 438 -219 1007 -376 1514
-417 22 -2 36 -14 63 -57 199 -310 686 -402 1026 -194 73 46 166 136 202 197
30 51 19 48 220 71 1030 120 1944 602 2528 1335 104 131 129 180 135 265 4 63
1 80 -23 133 -27 61 -63 100 -220 241 -50 45 -403 380 -439 417 -6 6 -101 103
-212 216 l-201 204 -8 65 c-13 107 -12 308 2 398 24 153 48 212 163 396 33 53
60 99 60 102 0 4 18 41 39 82 21 42 51 105 66 141 14 36 32 79 40 95 59 129
179 548 220 767 3 13 7 34 10 48 9 42 34 202 40 255 3 28 8 59 10 70 19 98 27
536 12 645 -11 76 -43 178 -67 218 -11 18 -36 40 -55 49 -30 14 -44 15 -95 5
-120 -22 -360 -159 -625 -357 -62 -47 -120 -91 -127 -98 -7 -6 -31 -25 -53
-42 -22 -16 -46 -35 -53 -42 -8 -7 -30 -26 -50 -41 -80 -60 -406 -336 -528
-447 -12 -11 -50 -45 -84 -75 -35 -30 -83 -74 -109 -98 -25 -24 -70 -66 -101
-94 -30 -28 -66 -61 -80 -74 -28 -25 -47 -30 -165 -38 -44 -4 -111 -9 -150
-12 -38 -3 -93 -7 -121 -9 -28 -2 -84 -6 -125 -9 -41 -4 -99 -8 -129 -11 -30
-2 -100 -8 -155 -12 -157 -12 -272 -10 -525 12 -97 9 -275 22 -390 30 -95 7
-176 14 -234 21 -39 4 -55 16 -175 128 -29 28 -59 56 -65 61 -69 65 -327 291
-461 406 -664 568 -1096 842 -1260 802z"/>
</g>
</svg>
